<svg width="280" height="75" viewBox="0 0 280 75" fill="none" xmlns="http://www.w3.org/2000/svg">
<path d="M5.63636 62V15.4545H21.3636C25.0152 15.4545 28 16.1136 30.3182 17.4318C32.6515 18.7348 34.3788 20.5 35.5 22.7273C36.6212 24.9545 37.1818 27.4394 37.1818 30.1818C37.1818 32.9242 36.6212 35.4167 35.5 37.6591C34.3939 39.9015 32.6818 41.6894 30.3636 43.0227C28.0455 44.3409 25.0758 45 21.4545 45H10.1818V40H21.2727C23.7727 40 25.7803 39.5682 27.2955 38.7045C28.8106 37.8409 29.9091 36.6742 30.5909 35.2045C31.2879 33.7197 31.6364 32.0455 31.6364 30.1818C31.6364 28.3182 31.2879 26.6515 30.5909 25.1818C29.9091 23.7121 28.803 22.5606 27.2727 21.7273C25.7424 20.8788 23.7121 20.4545 21.1818 20.4545H11.2727V62H5.63636ZM45.5341 62V27.0909H50.7159V32.3636H51.0795C51.7159 30.6364 52.8674 29.2348 54.5341 28.1591C56.2008 27.0833 58.0795 26.5455 60.1705 26.5455C60.5644 26.5455 61.0568 26.553 61.6477 26.5682C62.2386 26.5833 62.6856 26.6061 62.9886 26.6364V32.0909C62.8068 32.0455 62.3902 31.9773 61.7386 31.8864C61.1023 31.7803 60.428 31.7273 59.7159 31.7273C58.0189 31.7273 56.5038 32.0833 55.1705 32.7955C53.8523 33.4924 52.8068 34.4621 52.0341 35.7045C51.2765 36.9318 50.8977 38.3333 50.8977 39.9091V62H45.5341ZM82.4659 62.7273C79.3144 62.7273 76.5492 61.9773 74.1705 60.4773C71.8068 58.9773 69.9583 56.8788 68.625 54.1818C67.3068 51.4848 66.6477 48.3333 66.6477 44.7273C66.6477 41.0909 67.3068 37.9167 68.625 35.2045C69.9583 32.4924 71.8068 30.3864 74.1705 28.8864C76.5492 27.3864 79.3144 26.6364 82.4659 26.6364C85.6174 26.6364 88.375 27.3864 90.7386 28.8864C93.1174 30.3864 94.9659 32.4924 96.2841 35.2045C97.6174 37.9167 98.2841 41.0909 98.2841 44.7273C98.2841 48.3333 97.6174 51.4848 96.2841 54.1818C94.9659 56.8788 93.1174 58.9773 90.7386 60.4773C88.375 61.9773 85.6174 62.7273 82.4659 62.7273ZM82.4659 57.9091C84.8598 57.9091 86.8295 57.2955 88.375 56.0682C89.9205 54.8409 91.0644 53.2273 91.8068 51.2273C92.5492 49.2273 92.9205 47.0606 92.9205 44.7273C92.9205 42.3939 92.5492 40.2197 91.8068 38.2045C91.0644 36.1894 89.9205 34.5606 88.375 33.3182C86.8295 32.0758 84.8598 31.4545 82.4659 31.4545C80.072 31.4545 78.1023 32.0758 76.5568 33.3182C75.0114 34.5606 73.8674 36.1894 73.125 38.2045C72.3826 40.2197 72.0114 42.3939 72.0114 44.7273C72.0114 47.0606 72.3826 49.2273 73.125 51.2273C73.8674 53.2273 75.0114 54.8409 76.5568 56.0682C78.1023 57.2955 80.072 57.9091 82.4659 57.9091ZM119.653 62.7273C116.744 62.7273 114.176 61.9924 111.949 60.5227C109.722 59.0379 107.979 56.947 106.722 54.25C105.464 51.5379 104.835 48.3333 104.835 44.6364C104.835 40.9697 105.464 37.7879 106.722 35.0909C107.979 32.3939 109.729 30.3106 111.972 28.8409C114.214 27.3712 116.805 26.6364 119.744 26.6364C122.017 26.6364 123.813 27.0152 125.131 27.7727C126.464 28.5152 127.479 29.3636 128.176 30.3182C128.888 31.2576 129.441 32.0303 129.835 32.6364H130.29V15.4545H135.653V62H130.472V56.6364H129.835C129.441 57.2727 128.881 58.0758 128.153 59.0455C127.426 60 126.388 60.8561 125.04 61.6136C123.691 62.3561 121.896 62.7273 119.653 62.7273ZM120.381 57.9091C122.532 57.9091 124.35 57.3485 125.835 56.2273C127.32 55.0909 128.449 53.5227 129.222 51.5227C129.994 49.5076 130.381 47.1818 130.381 44.5455C130.381 41.9394 130.002 39.6591 129.244 37.7045C128.487 35.7348 127.366 34.2045 125.881 33.1136C124.396 32.0076 122.563 31.4545 120.381 31.4545C118.108 31.4545 116.214 32.0379 114.699 33.2045C113.199 34.3561 112.07 35.9242 111.312 37.9091C110.57 39.8788 110.199 42.0909 110.199 44.5455C110.199 47.0303 110.578 49.2879 111.335 51.3182C112.108 53.3333 113.244 54.9394 114.744 56.1364C116.259 57.3182 118.138 57.9091 120.381 57.9091ZM168.222 47.7273V27.0909H173.585V62H168.222V56.0909H167.858C167.04 57.8636 165.767 59.3712 164.04 60.6136C162.313 61.8409 160.131 62.4545 157.494 62.4545C155.312 62.4545 153.373 61.9773 151.676 61.0227C149.979 60.053 148.646 58.5985 147.676 56.6591C146.706 54.7045 146.222 52.2424 146.222 49.2727V27.0909H151.585V48.9091C151.585 51.4545 152.297 53.4848 153.722 55C155.161 56.5152 156.994 57.2727 159.222 57.2727C160.555 57.2727 161.911 56.9318 163.29 56.25C164.684 55.5682 165.85 54.5227 166.79 53.1136C167.744 51.7045 168.222 49.9091 168.222 47.7273ZM197.591 62.7273C194.318 62.7273 191.5 61.9545 189.136 60.4091C186.773 58.8636 184.955 56.7348 183.682 54.0227C182.409 51.3106 181.773 48.2121 181.773 44.7273C181.773 41.1818 182.424 38.053 183.727 35.3409C185.045 32.6136 186.879 30.4848 189.227 28.9545C191.591 27.4091 194.348 26.6364 197.5 26.6364C199.955 26.6364 202.167 27.0909 204.136 28C206.106 28.9091 207.72 30.1818 208.977 31.8182C210.235 33.4545 211.015 35.3636 211.318 37.5455H205.955C205.545 35.9545 204.636 34.5455 203.227 33.3182C201.833 32.0758 199.955 31.4545 197.591 31.4545C195.5 31.4545 193.667 32 192.091 33.0909C190.53 34.1667 189.311 35.6894 188.432 37.6591C187.568 39.6136 187.136 41.9091 187.136 44.5455C187.136 47.2424 187.561 49.5909 188.409 51.5909C189.273 53.5909 190.485 55.1439 192.045 56.25C193.621 57.3561 195.47 57.9091 197.591 57.9091C198.985 57.9091 200.25 57.6667 201.386 57.1818C202.523 56.697 203.485 56 204.273 55.0909C205.061 54.1818 205.621 53.0909 205.955 51.8182H211.318C211.015 53.8788 210.265 55.7348 209.068 57.3864C207.886 59.0227 206.318 60.3258 204.364 61.2955C202.424 62.25 200.167 62.7273 197.591 62.7273ZM234.341 27.0909V31.6364H216.25V27.0909H234.341ZM221.523 18.7273H226.886V52C226.886 53.5152 227.106 54.6515 227.545 55.4091C228 56.1515 228.576 56.6515 229.273 56.9091C229.985 57.1515 230.735 57.2727 231.523 57.2727C232.114 57.2727 232.598 57.2424 232.977 57.1818C233.356 57.1061 233.659 57.0455 233.886 57L234.977 61.8182C234.614 61.9545 234.106 62.0909 233.455 62.2273C232.803 62.3788 231.977 62.4545 230.977 62.4545C229.462 62.4545 227.977 62.1288 226.523 61.4773C225.083 60.8258 223.886 59.8333 222.932 58.5C221.992 57.1667 221.523 55.4848 221.523 53.4545V18.7273Z" fill="white"/>
<path d="M247.273 62.6591C245.636 62.6591 244.235 62.0833 243.068 60.9318C241.917 59.7803 241.348 58.3864 241.364 56.75C241.348 55.1439 241.917 53.7727 243.068 52.6364C244.235 51.4848 245.636 50.9091 247.273 50.9091C248.818 50.9091 250.182 51.4848 251.364 52.6364C252.561 53.7727 253.167 55.1439 253.182 56.75C253.167 57.8409 252.879 58.8333 252.318 59.7273C251.773 60.6212 251.053 61.3333 250.159 61.8636C249.28 62.3939 248.318 62.6591 247.273 62.6591ZM247.273 38.7045C245.636 38.7045 244.235 38.1364 243.068 37C241.917 35.8485 241.348 34.447 241.364 32.7955C241.348 31.1894 241.917 29.8182 243.068 28.6818C244.235 27.5303 245.636 26.9545 247.273 26.9545C248.818 26.9545 250.182 27.5303 251.364 28.6818C252.561 29.8182 253.167 31.1894 253.182 32.7955C253.167 33.8864 252.879 34.8788 252.318 35.7727C251.773 36.6667 251.053 37.3788 250.159 37.9091C249.28 38.4394 248.318 38.7045 247.273 38.7045ZM266.773 62.6591C265.136 62.6591 263.735 62.0833 262.568 60.9318C261.417 59.7803 260.848 58.3864 260.864 56.75C260.848 55.1439 261.417 53.7727 262.568 52.6364C263.735 51.4848 265.136 50.9091 266.773 50.9091C268.318 50.9091 269.682 51.4848 270.864 52.6364C272.061 53.7727 272.667 55.1439 272.682 56.75C272.667 57.8409 272.379 58.8333 271.818 59.7273C271.273 60.6212 270.553 61.3333 269.659 61.8636C268.78 62.3939 267.818 62.6591 266.773 62.6591ZM266.773 38.7045C265.136 38.7045 263.735 38.1364 262.568 37C261.417 35.8485 260.848 34.447 260.864 32.7955C260.848 31.1894 261.417 29.8182 262.568 28.6818C263.735 27.5303 265.136 26.9545 266.773 26.9545C268.318 26.9545 269.682 27.5303 270.864 28.6818C272.061 29.8182 272.667 31.1894 272.682 32.7955C272.667 33.8864 272.379 34.8788 271.818 35.7727C271.273 36.6667 270.553 37.3788 269.659 37.9091C268.78 38.4394 267.818 38.7045 266.773 38.7045Z" fill="#DA7272"/>
</svg>
